<?xml version="1.0" encoding="UTF-8" standalone="no"?>
<!DOCTYPE svg PUBLIC "-//W3C//DTD SVG 1.1//EN"
 "http://www.w3.org/Graphics/SVG/1.1/DTD/svg11.dtd">
<!-- Generated by graphviz version 2.38.0 (20140413.2041)
 -->
<!-- Title: G Pages: 1 -->
<svg width="518pt" height="294pt"
 viewBox="0.00 0.00 518.00 294.00" xmlns="http://www.w3.org/2000/svg" xmlns:xlink="http://www.w3.org/1999/xlink">
<g id="graph0" class="graph" transform="scale(1 1) rotate(0) translate(4 290)">
<title>G</title>
<polygon fill="white" stroke="none" points="-4,4 -4,-290 514,-290 514,4 -4,4"/>
<g id="clust1" class="cluster"><title>cluster_Global</title>
<path fill="none" stroke="gray" d="M20,-44C20,-44 490,-44 490,-44 496,-44 502,-50 502,-56 502,-56 502,-266 502,-266 502,-272 496,-278 490,-278 490,-278 20,-278 20,-278 14,-278 8,-272 8,-266 8,-266 8,-56 8,-56 8,-50 14,-44 20,-44"/>
<text text-anchor="middle" x="255" y="-265.2" font-family="Times,serif" font-size="11.00" fill="gray">Global</text>
</g>
<!-- \\ProductsController -->
<g id="node1" class="node"><title>\\ProductsController</title>
<polygon fill="none" stroke="black" points="490.5,-250 352.5,-250 352.5,-214 490.5,-214 490.5,-250"/>
<text text-anchor="middle" x="421.5" y="-229.2" font-family="Courier,monospace" font-size="11.00">ProductsController</text>
</g>
<!-- \\ProductsGateway -->
<g id="node2" class="node"><title>\\ProductsGateway</title>
<polygon fill="none" stroke="black" points="277,-196 159,-196 159,-160 277,-160 277,-196"/>
<text text-anchor="middle" x="218" y="-175.2" font-family="Courier,monospace" font-size="11.00">ProductsGateway</text>
</g>
<!-- \\Database -->
<g id="node6" class="node"><title>\\Database</title>
<polygon fill="none" stroke="black" points="87,-196 16,-196 16,-160 87,-160 87,-196"/>
<text text-anchor="middle" x="51.5" y="-175.2" font-family="Courier,monospace" font-size="11.00">Database</text>
</g>
<!-- \\ProductsGateway&#45;&gt;\\Database -->
<g id="edge1" class="edge"><title>\\ProductsGateway&#45;&gt;\\Database</title>
<path fill="none" stroke="black" d="M158.54,-178C138.437,-178 116.26,-178 97.4059,-178"/>
<polygon fill="none" stroke="black" points="97.3077,-174.5 87.3077,-178 97.3076,-181.5 97.3077,-174.5"/>
</g>
<!-- \\ValidationException -->
<g id="node3" class="node"><title>\\ValidationException</title>
<polygon fill="none" stroke="black" points="494,-142 349,-142 349,-106 494,-106 494,-142"/>
<text text-anchor="middle" x="421.5" y="-121.2" font-family="Courier,monospace" font-size="11.00">ValidationException</text>
</g>
<!-- \\Exception -->
<g id="node7" class="node"><title>\\Exception</title>
<ellipse fill="none" stroke="black" cx="218" cy="-18" rx="50.8918" ry="18"/>
<text text-anchor="middle" x="218" y="-14.3" font-family="Times,serif" font-size="14.00" fill="gray">xception</text>
</g>
<!-- \\ValidationException&#45;&gt;\\Exception -->
<g id="edge2" class="edge"><title>\\ValidationException&#45;&gt;\\Exception</title>
<path fill="none" stroke="black" d="M366.952,-105.874C360.768,-103.171 354.657,-100.204 349,-97 313.487,-76.8852 312.498,-60.141 277,-40 273.312,-37.9074 269.386,-35.938 265.383,-34.1035"/>
<polygon fill="none" stroke="black" points="266.548,-30.7951 255.978,-30.0733 263.791,-37.2292 266.548,-30.7951"/>
</g>
<!-- \\ProductsService -->
<g id="node4" class="node"><title>\\ProductsService</title>
<polygon fill="none" stroke="black" points="480.5,-196 362.5,-196 362.5,-160 480.5,-160 480.5,-196"/>
<text text-anchor="middle" x="421.5" y="-175.2" font-family="Courier,monospace" font-size="11.00">ProductsService</text>
</g>
<!-- \\ProductsService&#45;&gt;\\ProductsGateway -->
<g id="edge3" class="edge"><title>\\ProductsService&#45;&gt;\\ProductsGateway</title>
<path fill="none" stroke="black" d="M362.488,-178C339.09,-178 311.917,-178 287.551,-178"/>
<polygon fill="none" stroke="black" points="287.3,-174.5 277.3,-178 287.3,-181.5 287.3,-174.5"/>
</g>
<!-- \\Product -->
<g id="node5" class="node"><title>\\Product</title>
<polygon fill="none" stroke="black" points="453.5,-88 389.5,-88 389.5,-52 453.5,-52 453.5,-88"/>
<text text-anchor="middle" x="421.5" y="-67.2" font-family="Courier,monospace" font-size="11.00">Product</text>
</g>
</g>
</svg>
